<svg xmlns="http://www.w3.org/2000/svg" xmlns:xlink="http://www.w3.org/1999/xlink" width="256" height="256" version="1.1" viewBox="0 0 256 256" xml:space="preserve"><g style="stroke:none;stroke-width:0;stroke-dasharray:none;stroke-linecap:butt;stroke-linejoin:miter;stroke-miterlimit:10;fill:none;fill-rule:nonzero;opacity:1" transform="translate(1.4065934065934016 1.4065934065934016) scale(2.81 2.81)"><circle cx="45" cy="45" r="43.5" transform="matrix(1 0 0 1 0 0)" style="stroke:none;stroke-width:1;stroke-dasharray:none;stroke-linecap:butt;stroke-linejoin:miter;stroke-miterlimit:10;fill:#3c5a99;fill-rule:nonzero;opacity:1"/><path style="stroke:none;stroke-width:1;stroke-dasharray:none;stroke-linecap:butt;stroke-linejoin:miter;stroke-miterlimit:10;fill:#1f293f;fill-rule:nonzero;opacity:1" stroke-linecap="round" d="M 45 90 C 20.187 90 0 69.813 0 45 C 0 20.187 20.187 0 45 0 c 24.813 0 45 20.187 45 45 C 90 69.813 69.813 90 45 90 z M 45 3 C 21.841 3 3 21.841 3 45 c 0 23.159 18.841 42 42 42 c 23.159 0 42 -18.841 42 -42 C 87 21.841 68.159 3 45 3 z" transform="matrix(1 0 0 1 0 0)"/><path style="stroke:none;stroke-width:1;stroke-dasharray:none;stroke-linecap:butt;stroke-linejoin:miter;stroke-miterlimit:10;fill:#fff;fill-rule:nonzero;opacity:1" stroke-linecap="round" d="M 49.49 73.998 V 47.543 h 8.88 l 1.33 -10.31 H 49.49 v -6.582 c 0 -2.985 0.829 -5.019 5.109 -5.019 l 5.459 -0.002 v -9.221 c -0.944 -0.126 -4.185 -0.406 -7.955 -0.406 c -7.871 0 -13.26 4.805 -13.26 13.628 v 7.603 h -8.902 v 10.31 h 8.902 v 26.455 H 49.49 z" transform="matrix(1 0 0 1 0 0)"/><path style="stroke:none;stroke-width:1;stroke-dasharray:none;stroke-linecap:butt;stroke-linejoin:miter;stroke-miterlimit:10;fill:#1f293f;fill-rule:nonzero;opacity:1" stroke-linecap="round" d="M 50.99 75.498 H 37.343 V 49.043 h -8.902 v -13.31 h 8.902 V 29.63 c 0 -9.331 5.656 -15.128 14.76 -15.128 c 3.778 0 7.124 0.283 8.153 0.419 l 1.302 0.173 v 12.034 l -6.958 0.003 c -3.254 0 -3.61 1.127 -3.61 3.519 v 5.083 h 10.415 l -1.716 13.31 H 50.99 V 75.498 z M 40.343 72.498 h 7.647 V 46.043 h 9.061 l 0.942 -7.31 H 47.99 v -8.083 c 0 -2.798 0.686 -6.519 6.609 -6.519 l 3.959 -0.002 v -6.367 c -1.484 -0.125 -3.851 -0.261 -6.455 -0.261 c -7.364 0 -11.76 4.534 -11.76 12.128 v 9.104 h -8.902 v 7.31 h 8.902 V 72.498 z" transform="matrix(1 0 0 1 0 0)"/></g></svg>