<svg xmlns="http://www.w3.org/2000/svg" xmlns:xlink="http://www.w3.org/1999/xlink" version="1.1" width="256" height="256" viewBox="0 0 256 256" xml:space="preserve">

<defs>
</defs>
<g style="stroke: none; stroke-width: 0; stroke-dasharray: none; stroke-linecap: butt; stroke-linejoin: miter; stroke-miterlimit: 10; fill: none; fill-rule: nonzero; opacity: 1;" transform="translate(1.4065934065934016 1.4065934065934016) scale(2.81 2.81)" >
	<path d="M 84.926 28.836 H 45.003 c -8.923 -0.009 -16.163 7.217 -16.172 16.14 c -0.003 2.771 0.707 5.497 2.062 7.914 L 10.932 18.64 c 14.539 -18.817 41.58 -22.285 60.397 -7.746 C 77.372 15.563 82.065 21.755 84.926 28.836 z" style="stroke: none; stroke-width: 1; stroke-dasharray: none; stroke-linecap: butt; stroke-linejoin: miter; stroke-miterlimit: 10; fill: rgb(221,80,68); fill-rule: nonzero; opacity: 1;" transform=" matrix(1 0 0 1 0 0) " stroke-linecap="round" />
	<path d="M 29.239 53.854 L 8.628 18.49 l 0.789 -1.021 C 24.579 -2.153 52.876 -5.783 72.5 9.378 c 6.305 4.872 11.216 11.352 14.201 18.74 l 1.063 2.632 H 45.003 c -0.005 0 -0.01 0 -0.014 0 c -3.801 0 -7.372 1.477 -10.061 4.161 c -2.693 2.687 -4.177 6.262 -4.181 10.065 c -0.002 2.438 0.626 4.85 1.818 6.976 L 29.239 53.854 z M 13.247 18.808 L 27.08 42.544 c 0.525 -3.905 2.306 -7.512 5.142 -10.343 c 3.412 -3.405 7.944 -5.28 12.764 -5.28 c 0.007 0 0.013 0 0.019 0 h 36.973 c -2.767 -5.667 -6.812 -10.644 -11.819 -14.513 C 52.545 -1.2 27.293 1.741 13.247 18.808 z" style="stroke: none; stroke-width: 1; stroke-dasharray: none; stroke-linecap: butt; stroke-linejoin: miter; stroke-miterlimit: 10; fill: rgb(0,0,0); fill-rule: nonzero; opacity: 1;" transform=" matrix(1 0 0 1 0 0) " stroke-linecap="round" />
	<path d="M 88.085 44.992 c -0.02 23.785 -19.297 43.062 -43.082 43.082 c -1.801 0.007 -3.601 -0.113 -5.385 -0.359 L 59.005 53.07 c 4.443 -7.735 1.795 -17.607 -5.924 -22.08 c -2.444 -1.415 -5.218 -2.158 -8.042 -2.154 h 39.887 C 87.022 33.964 88.095 39.452 88.085 44.992 z" style="stroke: none; stroke-width: 1; stroke-dasharray: none; stroke-linecap: butt; stroke-linejoin: miter; stroke-miterlimit: 10; fill: rgb(255,205,66); fill-rule: nonzero; opacity: 1;" transform=" matrix(1 0 0 1 0 0) " stroke-linecap="round" />
	<path d="M 44.861 89.989 c -1.834 0 -3.687 -0.126 -5.504 -0.377 l -2.78 -0.383 l 20.757 -37.094 c 3.918 -6.821 1.575 -15.554 -5.213 -19.487 c -2.135 -1.237 -4.568 -1.892 -7.037 -1.896 h -0.044 l -0.003 -3.83 c 0.017 0 0.035 0 0.053 0 h 41.123 l 0.487 1.19 c 2.201 5.386 3.313 11.066 3.301 16.884 c -0.021 24.788 -20.205 44.972 -44.995 44.993 C 44.957 89.989 44.908 89.989 44.861 89.989 z M 42.718 86.096 c 0.76 0.045 1.526 0.068 2.279 0.063 C 67.683 86.14 86.152 67.672 86.17 44.991 v -0.002 c 0.009 -4.889 -0.849 -9.672 -2.552 -14.237 H 56.136 c 6.967 5.458 9.058 15.388 4.529 23.272 L 42.718 86.096 z" style="stroke: none; stroke-width: 1; stroke-dasharray: none; stroke-linecap: butt; stroke-linejoin: miter; stroke-miterlimit: 10; fill: rgb(0,0,0); fill-rule: nonzero; opacity: 1;" transform=" matrix(1 0 0 1 0 0) " stroke-linecap="round" />
	<path d="M 59.005 53.07 L 39.618 87.715 h -0.036 C 15.99 84.734 -0.719 63.192 2.262 39.6 c 0.965 -7.636 3.959 -14.874 8.671 -20.96 l 19.961 34.25 l 0.108 0.18 c 4.451 7.733 14.329 10.393 22.062 5.942 C 55.533 57.59 57.583 55.54 59.005 53.07 z" style="stroke: none; stroke-width: 1; stroke-dasharray: none; stroke-linecap: butt; stroke-linejoin: miter; stroke-miterlimit: 10; fill: rgb(25,161,95); fill-rule: nonzero; opacity: 1;" transform=" matrix(1 0 0 1 0 0) " stroke-linecap="round" />
	<path d="M 40.741 89.63 l -1.399 -0.015 c -11.918 -1.506 -22.536 -7.562 -29.898 -17.054 c -7.362 -9.492 -10.588 -21.283 -9.082 -33.2 c 1.007 -7.97 4.139 -15.54 9.056 -21.893 l 1.739 -2.246 l 21.486 36.86 c 1.916 3.329 4.984 5.689 8.657 6.679 c 3.674 0.99 7.512 0.489 10.807 -1.409 c 2.176 -1.251 3.987 -3.062 5.238 -5.237 l 3.33 1.89 L 40.741 89.63 z M 10.763 22.152 C 7.23 27.445 4.962 33.505 4.162 39.84 C 2.784 50.743 5.735 61.53 12.47 70.213 c 6.479 8.354 15.715 13.799 26.114 15.427 l 13.409 -23.964 c -3.687 1.556 -7.763 1.843 -11.69 0.783 c -4.66 -1.256 -8.554 -4.25 -10.962 -8.433 l -0.089 -0.148 L 10.763 22.152 z" style="stroke: none; stroke-width: 1; stroke-dasharray: none; stroke-linecap: butt; stroke-linejoin: miter; stroke-miterlimit: 10; fill: rgb(0,0,0); fill-rule: nonzero; opacity: 1;" transform=" matrix(1 0 0 1 0 0) " stroke-linecap="round" />
	<path d="M 59.005 53.07 c -4.451 7.733 -14.329 10.393 -22.062 5.942 c -2.47 -1.422 -4.52 -3.472 -5.942 -5.942 l -0.108 -0.18 c -4.362 -7.784 -1.588 -17.63 6.195 -21.992 c 2.418 -1.355 5.143 -2.065 7.914 -2.062 h 0.036 c 2.824 -0.004 5.598 0.739 8.042 2.154 C 60.799 35.463 63.448 45.335 59.005 53.07 z" style="stroke: none; stroke-width: 1; stroke-dasharray: none; stroke-linecap: butt; stroke-linejoin: miter; stroke-miterlimit: 10; fill: rgb(244,67,54); fill-rule: nonzero; opacity: 1;" transform=" matrix(1 0 0 1 0 0) " stroke-linecap="round" />
	<path d="M 59.005 53.07 c -4.451 7.733 -14.329 10.393 -22.062 5.942 c -2.47 -1.422 -4.52 -3.472 -5.942 -5.942 l -0.108 -0.18 c -4.362 -7.784 -1.588 -17.63 6.195 -21.992 c 2.418 -1.355 5.143 -2.065 7.914 -2.062 h 0.036 c 2.824 -0.004 5.598 0.739 8.042 2.154 C 60.799 35.463 63.448 45.335 59.005 53.07 z" style="stroke: none; stroke-width: 1; stroke-dasharray: none; stroke-linecap: butt; stroke-linejoin: miter; stroke-miterlimit: 10; fill: rgb(75,139,244); fill-rule: nonzero; opacity: 1;" transform=" matrix(1 0 0 1 0 0) " stroke-linecap="round" />
	<path d="M 44.942 62.943 c -3.13 0 -6.204 -0.825 -8.914 -2.391 c -2.733 -1.58 -5.002 -3.851 -6.581 -6.584 c -4.957 -8.586 -2.015 -19.564 6.571 -24.521 c 2.732 -1.577 5.831 -2.407 8.986 -2.405 c 9.914 -0.008 17.957 8.023 17.965 17.937 c 0.003 3.156 -0.827 6.256 -2.405 8.989 l 0 0 C 57.328 59.529 51.376 62.949 44.942 62.943 z M 45.035 30.631 c -5.152 -0.027 -9.921 2.715 -12.49 7.18 c -3.966 6.876 -1.606 15.666 5.27 19.631 s 15.666 1.606 19.631 -5.27 l 0 0 c 3.966 -6.869 1.612 -15.651 -5.256 -19.617 c -2.175 -1.255 -4.64 -1.919 -7.151 -1.924 L 45.035 30.631 L 45.035 30.631 z" style="stroke: none; stroke-width: 1; stroke-dasharray: none; stroke-linecap: butt; stroke-linejoin: miter; stroke-miterlimit: 10; fill: rgb(0,0,0); fill-rule: nonzero; opacity: 1;" transform=" matrix(1 0 0 1 0 0) " stroke-linecap="round" />
</g>
</svg>